<svg width="64" height="64" viewBox="0 0 64 64" fill="none" xmlns="http://www.w3.org/2000/svg">
  <defs>
    <linearGradient id="b-gradient" x1="0" y1="0" x2="1" y2="1">
      <stop offset="0%" stop-color="#3b82f6"/>
      <stop offset="50%" stop-color="#06b6d4"/>
      <stop offset="100%" stop-color="#8b5cf6"/>
    </linearGradient>
    <filter id="shadow" x="-20%" y="-20%" width="140%" height="140%">
      <feDropShadow dx="0" dy="6" stdDeviation="8" flood-color="#0b1220" flood-opacity="0.15"/>
    </filter>
  </defs>
  <g filter="url(#shadow)">
    <path d="M45.3 12.3c-2.5-2.8-6-4.4-10.3-4.4H18.4c-1.4 0-2.7 0.5-3.7 1.5C13.5 11 13 12.4 13 13.8v36.4c0 1.4 0.5 2.8 1.5 3.8 1 1 2.3 1.6 3.7 1.6h16.6c4.3 0 7.8-1.6 10.3-4.4 2.5-2.8 3.8-6.6 3.8-11.4v-8.2c0-1.7-0.3-3.4-0.9-5.1-0.6-1.5-1.6-3-2.9-4.3 1.3-1.2 2.3-2.7 2.9-4.3 0.6-1.7 0.9-3.4 0.9-5.1v-8.2c0-4.8-1.3-8.6-3.8-11.4Zm-6.4 35.5c-1.4 1.8-3.5 2.8-6.2 2.8H21.4V16.6h11.3c2.8 0 4.8 1 6.2 2.8 1.4 1.8 2.1 4.2 2.1 7.3v8.2c0 3-0.7 5.5-2.1 7.3Zm0-23.1c-1.4 1.8-3.5 2.8-6.2 2.8H21.4v13.7h11.3c2.8 0 4.8 1 6.2 2.8 1.4 1.8 2.1 4.2 2.1 7.3v0.1c0 3-0.7 5.5-2.1 7.3Z" fill="url(#b-gradient)"/>
    <path d="M18 20.5h-4.5v-4.5" stroke="#63b3ed" stroke-width="3" stroke-linecap="round"/>
    <path d="M18 32.5h-6.5" stroke="#63b3ed" stroke-width="3" stroke-linecap="round"/>
    <path d="M18 44.5h-4.5v4.5" stroke="#63b3ed" stroke-width="3" stroke-linecap="round"/>
    <circle cx="13" cy="16" r="2.5" fill="#63b3ed"/>
    <circle cx="13" cy="32.5" r="2.5" fill="#63b3ed"/>
    <circle cx="13" cy="48" r="2.5" fill="#63b3ed"/>
  </g>
</svg>
