<?xml version="1.0" standalone="no"?>
<!DOCTYPE svg PUBLIC "-//W3C//DTD SVG 20010904//EN"
 "http://www.w3.org/TR/2001/REC-SVG-20010904/DTD/svg10.dtd">
<svg version="1.0" xmlns="http://www.w3.org/2000/svg"
 width="2400.000000pt" height="2136.000000pt" viewBox="0 0 2400.000000 2136.000000"
 preserveAspectRatio="xMidYMid meet">
<g transform="translate(0.000000,2136.000000) scale(0.100000,-0.100000)"
fill="#000000" stroke="none">
<path d="M9460 18164 c-24 -7 -76 -16 -115 -20 -38 -4 -74 -10 -80 -14 -5 -5
-46 -13 -90 -19 -44 -6 -102 -18 -130 -26 -129 -37 -243 -65 -264 -65 -12 0
-32 -5 -44 -12 -12 -6 -51 -17 -87 -24 -59 -11 -111 -26 -195 -55 -16 -6 -50
-15 -75 -20 -58 -11 -182 -50 -196 -61 -14 -11 -121 -48 -157 -55 -63 -12 -59
67 -58 -1270 1 -1102 -4 -1382 -24 -1458 -13 -50 59 -67 111 -26 15 12 33 21
40 21 8 0 44 12 81 26 117 46 136 52 228 79 50 15 106 33 125 40 19 8 64 17
100 20 35 4 72 11 83 16 10 6 46 15 80 20 34 5 85 16 112 24 86 24 177 45 256
59 42 8 85 18 95 24 11 5 46 13 79 17 33 5 73 14 90 20 16 7 53 16 80 20 28 4
66 12 85 20 19 7 59 16 89 20 30 4 69 14 88 21 18 8 59 18 91 23 31 5 82 16
112 25 30 9 70 16 88 16 18 0 45 6 60 14 15 7 52 17 82 21 30 4 70 13 90 19
47 16 3648 13 3730 -2 30 -6 78 -15 105 -21 239 -45 456 -246 557 -516 63
-170 86 -451 44 -564 -9 -24 -16 -55 -16 -70 -1 -14 -8 -44 -16 -66 -9 -22
-20 -58 -26 -80 -6 -22 -16 -47 -23 -55 -7 -8 -16 -26 -20 -38 -40 -134 -262
-412 -452 -568 -107 -88 -258 -194 -278 -194 -5 0 -23 -7 -40 -16 -48 -26
-153 -53 -245 -64 -46 -6 -107 -17 -135 -25 -27 -7 -77 -16 -110 -20 -33 -4
-82 -13 -110 -20 -27 -8 -79 -17 -115 -20 -36 -4 -85 -13 -110 -20 -25 -7 -72
-16 -105 -20 -33 -3 -82 -12 -110 -20 -27 -7 -79 -16 -115 -20 -36 -4 -79 -13
-95 -20 -17 -6 -68 -15 -114 -19 -45 -4 -99 -13 -119 -20 -21 -7 -73 -16 -117
-20 -44 -4 -98 -13 -120 -21 -22 -7 -74 -16 -115 -19 -41 -4 -93 -13 -115 -20
-22 -8 -80 -17 -130 -21 -49 -3 -112 -13 -139 -21 -27 -8 -73 -14 -101 -14
-96 0 -147 -91 -92 -167 12 -17 72 -70 132 -117 61 -48 122 -96 136 -109 14
-12 76 -65 138 -117 63 -52 131 -112 153 -132 22 -21 44 -38 48 -38 5 0 15 -8
22 -18 7 -9 51 -48 98 -86 47 -38 90 -74 95 -80 6 -6 48 -43 95 -83 47 -39
101 -86 122 -105 20 -18 57 -51 83 -73 26 -22 55 -47 64 -55 9 -9 53 -47 99
-84 46 -38 102 -86 125 -107 53 -50 56 -51 157 -134 46 -39 103 -88 125 -110
42 -41 132 -119 168 -144 22 -15 24 -17 104 -91 59 -55 166 -148 253 -222 36
-30 80 -69 98 -86 18 -17 59 -46 90 -64 31 -17 75 -45 97 -60 58 -41 170 -114
224 -145 52 -31 127 -88 186 -142 22 -20 62 -53 90 -75 27 -21 55 -44 60 -51
6 -6 48 -44 95 -84 47 -39 108 -92 135 -116 28 -24 86 -73 130 -110 44 -36
100 -85 125 -109 25 -23 86 -75 135 -116 50 -40 92 -76 95 -79 3 -4 32 -29 65
-56 33 -28 80 -69 105 -91 25 -23 65 -57 90 -76 25 -19 57 -45 71 -59 51 -48
89 -81 179 -154 50 -41 105 -88 123 -104 36 -34 199 -176 271 -236 26 -22 53
-45 61 -52 16 -15 169 -145 215 -183 19 -16 51 -40 70 -53 l35 -23 -2 -90 c-3
-106 -18 -184 -78 -399 -24 -88 -52 -160 -96 -247 -11 -20 -19 -43 -19 -50 0
-7 -14 -35 -31 -61 l-30 -49 -137 135 c-147 145 -287 275 -372 347 -69 58
-124 106 -169 149 -20 18 -56 50 -81 70 -25 19 -54 45 -65 56 -11 11 -58 54
-104 95 -46 41 -89 80 -95 85 -6 6 -43 40 -81 75 -39 36 -102 92 -140 125 -38
33 -91 80 -117 105 -26 25 -54 50 -60 55 -7 6 -83 74 -168 150 -85 76 -161
144 -168 150 -7 5 -55 49 -105 96 -51 48 -114 105 -142 129 -27 23 -82 72
-120 107 l-70 66 -720 2 c-396 1 -725 3 -730 4 -6 0 -49 38 -96 84 -47 45
-128 120 -180 167 -51 47 -134 124 -184 171 -49 47 -119 112 -155 144 -36 31
-105 95 -155 141 -49 46 -133 123 -185 171 -52 48 -142 133 -200 188 -58 55
-134 125 -170 157 -36 31 -79 69 -96 85 -16 15 -91 85 -165 154 -74 69 -179
166 -234 216 -55 49 -125 114 -155 144 -30 30 -95 90 -145 133 -49 44 -127
116 -172 160 -45 44 -89 83 -97 86 -8 3 -779 3 -1713 0 -1857 -5 -1723 -10
-1723 52 0 25 -12 51 -69 156 -22 41 -173 184 -211 199 -19 9 -37 18 -40 22
-38 53 -398 83 -501 41 -72 -29 -90 -38 -114 -52 -101 -63 -127 -83 -173 -134
-88 -98 -115 -140 -127 -195 -4 -19 -14 -43 -21 -54 -43 -67 -44 -368 0 -438
7 -12 16 -37 20 -55 6 -34 23 -62 93 -150 89 -112 248 -211 378 -235 111 -20
332 -3 380 29 11 8 26 14 34 14 18 0 165 97 201 133 45 44 71 80 101 135 16
31 33 60 38 66 5 6 12 30 16 53 4 24 11 45 16 49 5 3 750 5 1655 5 l1647 -1
41 -37 c23 -20 42 -40 44 -44 2 -4 62 -62 135 -129 144 -134 351 -326 376
-350 73 -68 184 -171 274 -255 60 -55 130 -120 156 -145 26 -25 99 -92 161
-150 63 -58 151 -139 195 -180 45 -41 137 -127 205 -190 68 -63 138 -128 155
-145 17 -16 62 -57 100 -90 38 -33 94 -85 126 -115 31 -30 101 -95 155 -145
54 -49 132 -122 174 -161 l75 -72 725 5 725 6 102 -99 c57 -55 124 -117 150
-139 26 -22 79 -69 118 -105 78 -72 153 -140 271 -245 43 -38 88 -80 99 -91
11 -12 49 -46 86 -75 58 -48 88 -75 214 -195 17 -17 42 -38 54 -46 12 -9 50
-42 85 -74 34 -33 100 -93 145 -134 46 -41 90 -81 98 -89 8 -7 33 -29 56 -48
35 -29 144 -127 216 -193 95 -88 220 -197 281 -245 84 -68 160 -141 160 -156
0 -28 -417 -439 -526 -517 -73 -53 -302 -181 -343 -192 -22 -6 -43 -14 -45
-19 -3 -5 -27 -12 -52 -16 -26 -4 -61 -13 -78 -20 -61 -27 -289 -43 -571 -41
-148 2 -315 -1 -369 -5 -99 -7 -176 10 -176 40 0 7 -177 188 -290 296 -45 42
-231 228 -615 612 -183 183 -343 336 -356 340 -13 5 -580 6 -1259 3 -679 -3
-1244 -2 -1255 1 -11 4 -122 108 -246 231 -124 122 -328 322 -454 443 -481
464 -1029 1006 -1113 1099 l-32 36 -150 0 -150 0 -40 -41 c-22 -23 -40 -51
-40 -63 0 -22 45 -96 58 -96 6 0 58 -43 112 -93 8 -8 31 -25 50 -38 124 -87
92 -119 -98 -99 -96 11 -2742 16 -3026 6 l-40 -1 -27 79 c-15 43 -35 86 -43
95 -9 10 -16 21 -16 25 0 5 -10 21 -22 36 -13 15 -34 42 -48 60 -58 74 -174
148 -300 191 -131 46 -422 21 -483 -40 -6 -6 -16 -11 -22 -11 -41 0 -255 -205
-255 -244 0 -8 -6 -19 -14 -25 -8 -7 -18 -27 -21 -44 -4 -18 -13 -39 -20 -47
-50 -56 -49 -411 1 -487 7 -12 14 -30 14 -39 0 -37 101 -167 201 -259 106 -98
395 -163 535 -120 27 8 57 15 67 15 64 0 267 135 326 217 43 60 121 215 121
241 0 7 8 12 18 12 9 0 820 1 1801 1 l1784 -1 266 -263 c146 -145 313 -308
370 -362 93 -90 250 -243 605 -592 63 -62 125 -126 138 -142 48 -56 -27 -53
1327 -50 l1256 3 301 -300 c165 -165 365 -360 445 -434 167 -154 169 -156 169
-187 0 -27 -56 -30 -205 -12 -44 5 -408 12 -810 15 -770 6 -1055 -2 -1137 -31
-24 -9 -59 -21 -78 -27 -19 -5 -42 -16 -51 -24 -8 -8 -20 -14 -25 -14 -5 0
-38 -20 -74 -45 l-65 -45 -1861 0 c-1477 0 -1864 3 -1872 13 -5 6 -13 28 -17
47 -31 156 -195 326 -390 404 -119 48 -368 45 -475 -5 -25 -11 -65 -31 -89
-42 -50 -25 -193 -161 -233 -222 -89 -139 -133 -404 -85 -523 9 -23 17 -52 17
-63 0 -11 12 -46 27 -77 127 -269 395 -412 700 -374 245 30 457 200 524 419
13 42 27 67 37 69 9 2 758 5 1665 6 1641 3 1647 3 1647 -17 0 -11 -13 -29 -29
-40 -82 -57 -282 -241 -615 -566 -100 -97 -248 -241 -330 -320 -82 -79 -188
-182 -236 -229 -48 -47 -187 -182 -310 -300 -122 -118 -242 -234 -266 -258
-58 -56 -58 -133 -1 -180 25 -21 6333 -21 6422 0 39 9 97 20 130 23 33 4 83
13 110 20 28 8 82 21 120 31 39 9 95 22 125 30 60 14 172 53 207 72 12 7 30
12 41 12 11 0 25 6 31 14 6 7 26 16 43 20 28 6 90 30 138 55 8 5 44 23 80 40
36 18 72 37 80 42 8 5 29 16 45 24 17 8 48 26 70 40 22 13 51 30 65 37 73 38
321 209 413 286 69 57 66 54 192 157 101 82 162 135 204 176 9 8 43 37 75 65
33 27 95 83 137 124 43 41 101 98 129 125 86 82 370 439 370 464 0 5 7 14 16
21 8 8 21 27 29 44 24 52 85 159 100 176 8 9 15 24 15 32 0 9 7 21 15 28 8 7
19 26 24 44 5 17 25 69 45 116 20 46 36 89 36 95 0 6 9 27 20 48 11 20 20 45
20 54 0 10 8 45 19 78 36 115 52 191 66 325 8 74 19 151 25 170 17 58 13 1610
-4 1685 -8 33 -17 98 -21 145 -4 47 -12 94 -18 105 -6 11 -16 49 -23 85 -15
78 -48 193 -69 237 -8 17 -15 36 -15 41 0 6 -7 23 -15 39 -8 15 -26 55 -40 88
-14 33 -30 67 -35 75 -5 8 -19 33 -30 55 -92 179 -307 439 -459 555 -19 14
-47 38 -65 53 -17 16 -56 45 -86 65 -30 20 -62 42 -70 49 -8 7 -54 44 -101 81
-47 37 -93 74 -101 82 -8 8 -68 60 -133 115 -65 55 -175 149 -244 209 -131
113 -175 151 -250 214 -25 20 -72 62 -105 93 -34 30 -97 84 -141 120 -72 58
-136 112 -220 189 -16 14 -68 57 -115 95 -47 37 -94 77 -106 89 -11 12 -53 46
-92 76 -90 70 -90 78 0 155 38 33 109 97 157 143 47 45 102 97 121 114 19 18
76 71 125 118 50 47 137 129 195 182 58 53 144 134 191 180 48 46 104 99 125
118 21 19 86 77 144 129 93 84 165 163 217 241 9 14 33 45 53 70 36 46 120
182 120 196 0 9 34 86 60 136 11 20 20 43 20 50 0 8 9 31 20 53 11 21 23 55
26 74 4 20 12 47 19 61 7 14 16 48 20 75 4 28 13 64 20 80 7 17 15 57 19 90 4
33 15 85 24 115 25 82 25 798 0 880 -9 30 -19 80 -23 110 -4 30 -12 64 -17 74
-6 11 -17 49 -24 84 -8 36 -18 70 -24 76 -5 5 -10 19 -10 29 0 11 -8 38 -19
61 -10 23 -29 68 -41 101 -24 62 -140 283 -165 313 -8 9 -27 36 -42 59 -40 59
-117 148 -193 221 -93 91 -104 99 -220 188 -58 44 -117 91 -131 104 -46 45
-173 156 -239 211 -36 29 -67 56 -70 59 -7 9 -184 165 -270 239 -41 36 -84 75
-95 87 -17 18 -157 141 -267 234 -17 14 -42 36 -57 50 -15 14 -76 68 -136 120
-60 52 -139 122 -175 155 -121 113 -317 248 -420 291 -8 4 -33 15 -55 25 -91
41 -234 86 -335 104 -41 8 -91 19 -110 25 -56 17 -4911 11 -4970 -6z m30 -293
c0 -20 5 -42 11 -48 30 -30 33 -1967 3 -2014 -3 -6 -6 -28 -6 -50 1 -49 -21
-73 -57 -64 -14 4 -37 8 -51 9 -14 2 -40 6 -57 10 -42 10 -69 1 -76 -24 -7
-28 -62 -28 -77 0 -15 28 -54 25 -74 -6 -16 -23 -22 -25 -80 -22 -47 2 -67 -2
-79 -14 -10 -10 -43 -18 -94 -22 -43 -4 -93 -15 -110 -24 -35 -17 -44 -48 -18
-58 19 -8 20 -24 1 -24 -8 0 -16 7 -20 15 -3 8 -13 15 -23 15 -10 0 -30 7 -46
15 -19 10 -58 14 -127 13 -109 -1 -130 7 -130 51 0 15 -8 31 -19 38 -14 9 -19
25 -20 74 -1 46 -6 68 -20 83 -18 20 -24 55 -23 126 10 478 15 817 13 945 -2
131 1 169 15 210 10 28 18 81 18 118 1 55 5 71 20 83 16 11 19 25 17 77 -2 64
14 98 38 82 20 -12 50 15 53 48 2 27 8 33 31 35 15 2 32 12 37 23 13 23 67 52
81 43 6 -3 7 -19 4 -34 -7 -32 9 -48 30 -30 9 8 15 30 15 56 0 53 2 54 96 59
42 2 81 8 87 13 24 19 88 33 117 27 23 -5 33 -1 51 19 14 16 33 26 50 26 18 0
32 9 44 26 14 22 22 25 50 21 21 -3 40 0 52 8 24 19 41 18 78 -1 29 -15 31
-15 56 15 15 19 43 36 70 44 33 10 45 18 47 35 5 35 22 15 22 -27z m4968 7
c-3 -7 -21 -14 -41 -16 -25 -2 -37 -8 -37 -19 0 -8 -9 -17 -19 -20 -29 -7 -14
-33 20 -33 18 0 32 -7 39 -20 15 -28 33 -25 58 10 29 39 55 38 73 -2 10 -23
20 -32 33 -30 11 2 33 -12 58 -37 47 -49 40 -49 83 -6 28 29 39 34 54 26 32
-18 81 -81 81 -106 0 -14 8 -29 20 -35 11 -6 20 -17 20 -25 0 -27 23 -28 44
-3 31 38 48 39 80 7 16 -16 40 -29 53 -29 28 0 39 -21 24 -47 -7 -14 -6 -31 4
-58 15 -47 29 -54 45 -25 12 22 12 22 46 -11 23 -22 32 -39 28 -51 -3 -12 5
-28 25 -48 35 -35 47 -37 54 -10 9 34 27 22 27 -19 0 -41 20 -67 45 -57 8 3
15 14 15 25 0 23 43 56 60 46 22 -14 10 -45 -25 -59 -58 -24 -38 -56 35 -56
43 0 48 -4 128 -84 49 -50 82 -92 82 -104 0 -29 18 -37 39 -18 27 25 61 21 61
-8 0 -58 20 -86 61 -86 25 0 39 -5 39 -13 0 -6 25 -38 55 -69 30 -31 55 -66
55 -77 0 -36 53 -79 106 -87 32 -4 55 -15 70 -32 12 -13 29 -32 39 -41 9 -9
62 -60 117 -113 56 -54 109 -98 118 -98 10 0 29 -9 43 -20 14 -11 32 -20 41
-20 8 0 22 -13 31 -30 8 -16 28 -38 43 -47 46 -30 70 -57 74 -83 2 -19 10 -26
33 -28 33 -4 45 -16 45 -49 0 -25 25 -43 50 -36 12 3 22 -6 33 -34 8 -21 47
-69 85 -108 59 -59 71 -77 77 -115 4 -25 16 -55 27 -67 11 -12 18 -29 15 -37
-4 -10 9 -31 38 -58 25 -24 45 -49 45 -56 0 -7 7 -26 15 -43 9 -16 17 -48 19
-70 2 -23 9 -44 15 -48 25 -16 32 -78 25 -252 -7 -190 -7 -191 45 -193 l26 -1
8 -135 c8 -121 0 -251 -17 -267 -12 -12 -26 11 -26 43 0 27 -4 34 -20 34 -19
0 -20 -7 -20 -135 0 -74 -4 -135 -9 -135 -18 0 -20 -30 -3 -46 14 -14 17 -40
19 -139 2 -118 2 -123 -22 -145 -21 -20 -25 -33 -25 -80 0 -35 -6 -64 -16 -78
-11 -16 -14 -34 -10 -57 4 -22 2 -45 -7 -62 -32 -63 -46 -267 -19 -282 9 -5
12 -15 7 -30 l-7 -22 -29 25 c-16 14 -38 27 -49 31 -11 3 -20 10 -20 15 0 5
-15 17 -32 26 -35 17 -139 99 -197 153 -19 18 -43 37 -55 43 -11 6 -32 21 -46
34 -14 13 -77 66 -140 118 -63 52 -133 113 -155 136 -22 22 -44 40 -48 40 -7
0 -104 80 -180 149 -16 14 -43 40 -61 56 -19 17 -46 39 -62 50 -41 29 -144
113 -179 146 -45 43 -175 150 -220 183 -22 16 -53 42 -70 57 -51 46 -178 158
-218 192 -21 18 -60 53 -88 80 -28 26 -54 47 -59 47 -5 0 -15 6 -22 13 -7 6
-29 24 -48 38 -20 15 -63 53 -97 85 -33 33 -86 79 -117 104 -31 25 -76 61
-100 80 -24 19 -51 40 -61 46 -21 12 -13 34 13 34 9 0 23 4 31 9 27 17 -6 41
-55 41 -45 0 -53 7 -32 28 9 9 9 15 0 24 -19 19 -14 45 9 51 26 7 22 37 -6 52
-49 25 -87 63 -105 102 -21 48 -25 50 -47 27 -15 -14 -18 -13 -40 10 -13 14
-29 23 -37 20 -8 -3 -32 11 -54 30 -23 21 -50 36 -64 36 -17 0 -37 14 -64 45
-40 47 -54 55 -54 30 0 -27 -29 -28 -61 -1 -17 14 -39 26 -49 26 -9 0 -23 7
-30 15 -9 11 -23 13 -50 9 -32 -5 -40 -3 -49 15 -14 25 -36 27 -49 6 -6 -13
-34 -17 -134 -20 -123 -4 -125 -4 -146 20 -27 31 -56 32 -76 3 -28 -39 -134
-69 -158 -44 -9 8 -29 16 -44 16 -72 1 -107 8 -116 24 -11 20 -32 21 -47 2
-22 -26 -103 -29 -123 -4 -16 21 -17 22 -36 5 -14 -13 -37 -17 -100 -17 -81 0
-83 0 -117 36 -35 36 -61 37 -52 2 8 -30 -29 -62 -61 -53 -15 4 -42 8 -61 10
-19 1 -38 9 -43 19 -12 22 -31 20 -47 -5 l-13 -22 -25 27 c-16 17 -31 25 -41
21 -10 -4 -22 2 -33 16 -23 31 -51 19 -43 -19 9 -42 -45 -82 -79 -59 -12 8
-50 18 -84 22 -38 4 -71 14 -84 26 -30 25 -45 24 -65 -6 -19 -29 -92 -28 -125
1 -22 19 -32 18 -48 -7 l-13 -22 -24 27 c-30 31 -44 32 -74 6 -27 -24 -63 -26
-80 -5 -17 20 -37 19 -49 -3 -15 -28 -256 -30 -271 -2 -14 26 -36 25 -50 0
-14 -25 -55 -26 -72 -2 -25 36 -94 35 -128 -1 -22 -23 -30 -27 -34 -17 -2 8
-7 23 -10 33 -7 23 -37 22 -65 -2 -40 -35 -99 -38 -128 -7 -22 24 -29 26 -83
21 -50 -5 -60 -3 -72 13 -23 33 -54 36 -79 8 -29 -33 -59 -33 -87 -1 -24 28
-34 30 -63 15 -14 -8 -18 -17 -13 -34 5 -20 1 -24 -27 -30 -54 -10 -114 -7
-135 9 -35 27 -94 19 -131 -17 -33 -31 -38 -33 -136 -39 -78 -4 -112 -11 -145
-28 -50 -25 -76 -16 -66 24 8 32 -14 42 -38 17 -17 -17 -26 -18 -55 -10 -20 5
-47 6 -62 2 -14 -4 -54 -8 -89 -10 -60 -2 -62 -1 -67 24 -3 15 -9 41 -13 57
-5 17 -7 48 -6 70 1 22 5 191 8 375 7 388 14 520 27 520 5 0 9 13 9 28 0 16 9
37 20 47 29 26 29 134 0 160 l-20 18 21 23 c29 31 35 307 7 312 -9 2 -19 -6
-23 -17 -16 -50 -25 -13 -25 102 l0 123 43 42 c44 44 85 47 108 10 5 -8 83
-13 229 -16 210 -4 222 -3 240 16 37 39 292 41 328 2 26 -28 217 -22 237 6 19
28 221 29 236 1 13 -23 36 -22 49 3 18 34 171 30 195 -6 l17 -26 22 21 c15 14
45 24 95 31 96 13 107 9 114 -41 7 -52 14 -58 33 -31 12 17 25 22 58 22 36 0
47 5 61 27 l18 27 21 -27 c28 -35 97 -34 122 1 8 12 24 22 35 22 11 0 31 7 44
16 36 24 89 10 81 -21 -9 -36 18 -52 38 -23 15 20 26 23 99 25 45 2 91 3 102
3 11 1 28 9 38 18 18 16 20 16 34 -5 9 -13 26 -23 39 -23 13 0 42 -10 65 -22
51 -26 71 -10 62 48 -7 41 -7 41 59 9 59 -29 70 -30 101 -12 13 8 57 15 107
16 47 1 93 4 102 7 10 3 21 -3 28 -16 13 -24 33 -26 50 -5 16 19 51 19 76 0
10 -8 29 -15 42 -15 15 0 26 -9 32 -26 11 -27 40 -19 40 12 0 20 16 25 43 13
20 -9 32 -7 65 10 49 25 70 26 100 6 12 -9 27 -15 34 -14 7 1 25 -1 40 -5 15
-4 34 -3 44 2 12 7 26 6 41 -1 19 -8 31 -6 62 11 33 19 40 20 57 7 16 -12 22
-12 42 1 12 8 39 14 60 13 20 -2 47 3 58 9 27 14 46 -5 48 -45 1 -33 21 -41
36 -14 6 12 21 21 33 21 12 0 31 7 41 15 17 13 23 13 41 1 18 -12 24 -12 40 0
16 12 22 12 42 -1 21 -14 25 -14 39 0 9 8 20 12 26 9 50 -31 241 -37 252 -8 3
8 12 14 21 14 8 0 15 7 15 15 0 11 11 15 41 15 28 0 39 -4 37 -12z m2828
-2853 c8 -20 -4 -65 -16 -65 -6 0 -10 18 -10 40 0 40 15 54 26 25z m-2122
-370 c27 -18 42 -23 54 -16 37 20 112 24 112 7 0 -11 -9 -16 -27 -16 -40 0
-73 -11 -73 -23 0 -16 62 -67 82 -67 10 0 26 -9 35 -20 29 -33 58 -25 94 25
l33 46 25 -33 c14 -18 38 -45 54 -60 30 -29 17 -38 -17 -13 -41 31 -86 15 -86
-32 0 -23 56 -73 82 -73 35 0 56 -16 40 -32 -22 -22 -13 -48 23 -69 19 -12 35
-27 35 -35 0 -21 16 -17 33 9 20 29 53 12 49 -26 -2 -18 4 -29 17 -36 11 -6
23 -20 26 -31 6 -18 12 -20 50 -14 39 5 45 3 60 -20 13 -19 23 -24 40 -20 24
6 44 -24 30 -46 -6 -9 21 -70 31 -70 3 0 10 14 15 30 9 24 17 30 40 30 29 0
38 -13 19 -25 -17 -11 -11 -43 10 -50 13 -4 20 -15 20 -30 0 -25 39 -75 58
-75 6 0 14 9 17 20 3 11 10 20 14 20 4 0 16 -9 26 -20 10 -11 28 -20 39 -20
12 0 29 -9 39 -20 20 -24 33 -25 41 -4 3 8 10 12 16 9 16 -10 12 -22 -11 -28
-19 -5 -21 -11 -15 -49 4 -24 8 -55 9 -70 3 -38 14 -44 38 -22 21 19 21 19 38
-2 10 -12 33 -25 51 -29 19 -4 49 -22 68 -41 28 -28 36 -31 63 -24 36 11 48
-7 30 -46 -16 -35 -15 -35 26 -32 46 4 60 -25 19 -36 -28 -7 -33 -27 -16 -70
17 -47 50 -27 50 29 0 62 56 22 65 -47 6 -42 5 -47 -16 -58 -13 -7 -36 -26
-51 -43 -30 -36 -37 -33 -47 15 -6 28 -11 33 -36 33 -39 0 -46 -36 -15 -70
l22 -24 -21 -13 c-26 -16 -27 -35 -1 -43 11 -3 20 -12 20 -20 0 -8 -9 -17 -20
-20 -14 -4 -20 -15 -20 -36 0 -36 -27 -50 -46 -24 -17 23 -48 12 -39 -14 7
-23 -37 -72 -82 -90 -38 -15 -38 -15 -19 -67 17 -49 9 -79 -10 -35 -21 49 -64
35 -64 -21 0 -21 -6 -31 -24 -38 -13 -5 -43 -27 -65 -49 -49 -48 -103 -73
-137 -65 -19 5 -26 1 -35 -20 -7 -14 -16 -26 -20 -26 -21 0 -39 -35 -39 -76 0
-41 -2 -44 -28 -44 -17 0 -32 -8 -41 -22 l-13 -21 -18 23 c-23 30 -37 20 -45
-33 -11 -62 -20 -75 -50 -70 -15 3 -25 1 -25 -6 0 -6 -7 -11 -15 -11 -8 0 -22
-11 -31 -25 -9 -14 -25 -25 -35 -25 -11 0 -19 -5 -19 -12 0 -6 -7 -4 -18 5
-10 10 -26 17 -36 17 -32 0 -10 25 23 26 60 2 64 44 5 44 -22 0 -37 6 -40 15
-4 8 -17 15 -31 15 -27 0 -173 133 -173 158 0 9 -5 10 -19 2 -32 -16 -51 -12
-61 15 -8 22 -16 25 -55 25 -40 0 -45 2 -45 23 0 13 -12 35 -27 49 -16 15 -40
39 -54 56 -15 17 -40 31 -60 35 -85 14 -116 47 -64 67 59 22 32 90 -35 90 -31
0 -43 5 -55 24 -21 32 -61 41 -91 21 -30 -20 -34 -19 -34 5 0 11 -13 32 -29
48 -19 18 -31 40 -33 62 -2 24 -9 36 -23 40 -22 5 -64 33 -96 63 -30 27 -24
53 14 63 43 13 42 38 -1 42 -26 3 -35 -1 -39 -16 -8 -32 -93 -36 -93 -5 0 12
5 25 11 28 6 4 10 23 9 44 -3 60 -1 71 15 71 8 0 32 18 54 40 21 22 46 40 55
40 29 0 76 42 76 67 0 13 5 32 12 42 16 26 3 51 -27 51 -16 0 -25 6 -25 15 0
10 10 15 30 15 26 0 33 7 56 51 17 35 35 55 55 62 16 6 29 17 29 23 0 6 9 23
20 37 11 14 20 33 20 42 0 9 15 22 35 31 30 12 34 17 25 34 -18 34 -12 50 19
50 40 0 47 16 16 36 l-26 17 24 26 c14 14 27 39 31 55 5 21 11 27 26 23 41
-11 47 10 40 138 -6 103 -5 122 9 133 13 11 19 10 33 -9 30 -37 46 -18 44 53
-2 58 -4 64 -29 76 -29 14 -34 31 -15 50 16 16 20 16 62 -13z m-924 -1374 c14
-10 48 -28 75 -41 28 -13 68 -37 90 -52 22 -16 51 -36 65 -46 14 -9 31 -23 39
-30 8 -7 44 -38 80 -68 36 -29 71 -58 76 -63 6 -5 51 -46 100 -90 50 -44 122
-112 162 -151 39 -38 76 -70 81 -70 5 0 17 -11 26 -25 9 -14 23 -25 31 -25 8
0 33 -21 57 -46 24 -25 65 -62 91 -81 56 -41 87 -66 133 -108 18 -16 47 -41
65 -55 17 -14 39 -34 48 -44 15 -19 41 -44 78 -77 137 -120 195 -220 132 -227
-24 -3 -27 -8 -32 -50 -3 -26 -1 -51 4 -56 5 -6 9 -20 9 -32 0 -17 7 -23 28
-26 16 -2 27 -9 27 -18 0 -9 -11 -16 -27 -18 -37 -4 -39 -39 -3 -48 14 -3 25
-13 25 -21 0 -8 9 -26 20 -40 11 -14 20 -34 20 -45 0 -10 18 -36 40 -58 22
-22 40 -47 40 -57 0 -23 56 -73 82 -73 34 0 76 -29 86 -60 8 -20 18 -30 32
-30 47 0 134 -111 131 -167 -1 -29 16 -39 37 -19 12 10 22 12 32 6 8 -5 27
-10 41 -10 15 0 29 -7 33 -15 3 -9 18 -15 36 -15 29 0 30 -1 16 -23 -19 -27
10 -87 42 -87 9 0 27 -7 39 -15 12 -8 28 -12 37 -9 10 4 19 -2 27 -18 10 -23
105 -88 128 -88 9 0 9 -5 1 -20 -13 -24 -5 -40 19 -40 34 0 47 -28 29 -60 -25
-43 4 -79 38 -45 15 14 44 11 44 -6 0 -5 13 -9 28 -9 32 0 52 -30 52 -80 0
-38 19 -48 39 -21 l17 22 21 -23 c11 -13 23 -31 25 -42 3 -17 39 -33 108 -50
14 -3 33 -18 43 -33 37 -60 68 -97 95 -113 15 -10 44 -36 65 -59 24 -26 46
-41 62 -41 14 0 26 -7 29 -18 7 -20 79 -72 101 -72 7 0 38 -21 68 -46 49 -40
55 -49 51 -73 -6 -31 18 -55 83 -80 27 -11 32 -17 27 -37 -5 -19 -1 -24 20
-30 14 -3 26 -12 26 -20 0 -7 16 -29 35 -48 19 -20 35 -41 35 -48 0 -8 12 -18
28 -24 47 -18 125 -118 118 -151 -7 -32 0 -45 32 -62 22 -12 32 -61 12 -61
-25 0 -9 -39 17 -42 24 -3 29 -9 38 -48 5 -25 13 -49 16 -55 17 -27 19 -72 4
-85 -21 -17 -19 -37 5 -50 19 -10 21 -20 19 -136 -1 -119 0 -126 21 -141 21
-15 22 -20 19 -181 -3 -163 -3 -165 19 -175 l23 -10 -1 -456 c-1 -251 2 -464
5 -474 4 -9 2 -30 -5 -47 -10 -25 -8 -39 18 -110 28 -76 29 -84 16 -116 -16
-37 -8 -67 21 -78 19 -7 19 -30 0 -46 -22 -18 -19 -73 5 -95 24 -22 26 -53 4
-84 -13 -19 -15 -30 -6 -60 16 -56 14 -209 -2 -255 -8 -23 -18 -66 -21 -96
-11 -105 -30 -107 -44 -5 -29 207 -49 317 -59 327 -7 7 -12 21 -12 33 0 11 -9
37 -20 58 -11 20 -20 43 -20 50 0 7 -20 44 -45 82 -25 39 -45 75 -45 82 0 6
-4 13 -8 15 -5 2 -39 39 -77 83 -71 82 -243 255 -254 255 -3 0 -33 25 -66 55
-80 73 -80 73 -150 130 -59 49 -121 103 -156 137 -9 9 -66 56 -125 104 -59 48
-131 110 -159 138 -29 28 -68 63 -88 77 -32 22 -108 92 -163 151 -8 9 -14 27
-12 40 2 18 -1 22 -16 20 -17 -3 -18 -2 -6 12 10 13 10 22 1 42 -9 20 -8 30 3
45 10 15 12 38 9 78 -4 44 -2 59 11 70 42 35 -6 75 -53 45 -24 -16 -40 -8 -41
21 0 6 -9 16 -20 23 -11 7 -20 19 -20 27 0 8 9 19 20 25 27 14 25 36 -5 62
-15 13 -23 28 -20 38 8 25 -46 80 -78 80 -16 0 -32 8 -39 20 -7 11 -22 20 -33
20 -40 0 -63 12 -69 36 -5 20 -13 24 -42 24 -33 0 -36 2 -30 25 8 30 -125 168
-151 158 -17 -6 -97 74 -108 106 -3 10 -18 21 -34 24 -28 6 -45 33 -53 82 -2
14 -12 21 -34 23 -32 3 -109 71 -89 78 29 12 37 23 31 40 -7 17 -9 17 -30 -8
-38 -49 -100 -32 -89 23 5 27 3 29 -26 29 -27 0 -34 5 -46 35 -17 39 -47 59
-79 51 -36 -9 -90 54 -82 98 8 40 -12 67 -43 59 -13 -3 -23 2 -30 16 -16 28
-37 26 -45 -4 -4 -14 -10 -25 -15 -25 -15 0 -101 75 -101 88 0 20 49 14 62 -8
18 -29 56 -26 64 5 12 46 -1 58 -54 50 -53 -7 -68 2 -74 45 -3 23 -8 25 -55
28 -56 3 -103 41 -103 82 0 30 -28 50 -69 50 -40 0 -72 26 -101 85 -11 21 -22
29 -36 27 -14 -2 -48 27 -117 98 -53 55 -101 100 -106 100 -22 0 -19 31 4 42
29 13 32 26 9 35 -9 3 -23 -3 -35 -16 -28 -29 -53 -26 -81 10 -63 83 -121 119
-134 84 -7 -18 -40 -20 -50 -3 -4 6 1 17 12 25 18 14 18 15 -5 32 l-24 18 22
15 c27 19 18 48 -15 48 -16 0 -28 -8 -36 -25 -15 -34 -13 -35 -102 55 -84 85
-106 94 -136 58 -14 -18 -21 -20 -31 -11 -16 16 -4 43 21 43 23 0 26 10 8 28
-14 14 -78 16 -78 2 0 -14 -37 -31 -54 -24 -23 9 -20 19 9 32 34 16 31 32 -9
64 -21 17 -36 39 -38 55 -4 33 -24 41 -33 13 -9 -27 -29 -21 -33 11 -2 13 -24
42 -48 65 -30 28 -44 49 -44 67 0 35 -17 43 -42 21 -19 -18 -20 -18 -33 -1 -7
10 -22 17 -33 15 -26 -4 -52 19 -52 47 0 13 -15 38 -35 58 -19 19 -35 43 -35
52 0 13 -8 16 -37 13 -35 -3 -37 -1 -44 31 -8 40 -23 51 -66 51 -44 0 -63 9
-63 30 0 35 -11 50 -34 44 -16 -4 -33 6 -69 40 -26 26 -54 46 -62 46 -20 0
-35 32 -35 72 0 51 -74 118 -131 118 -40 0 -47 5 -175 134 -86 85 -134 141
-134 154 0 24 -17 38 -42 34 -9 -2 -23 6 -30 17 -8 13 -23 21 -40 21 -17 0
-29 7 -33 19 -3 10 -17 22 -30 25 -21 5 -25 13 -25 41 0 33 -2 35 -34 35 -22
0 -40 7 -48 18 -7 10 -27 24 -44 30 -110 45 -169 219 -67 199 36 -7 61 4 101
43 31 32 33 32 52 15 19 -17 21 -17 49 14 31 33 65 41 75 16 11 -29 56 -17 96
25 40 43 78 52 100 25 17 -21 37 -19 50 5 15 27 237 25 268 -3 27 -24 29 -23
89 43 43 47 62 60 84 60 16 0 29 -4 29 -9 0 -4 11 -20 24 -34 13 -14 26 -32
29 -39 8 -19 36 18 31 40 -2 9 0 23 5 31 12 19 45 -5 36 -26 -2 -8 0 -23 6
-34 14 -27 37 -8 41 34 2 25 8 33 28 35 14 2 33 11 43 20 9 8 25 16 35 17 9 0
28 8 42 17 16 10 61 18 125 23 88 6 102 9 120 30 11 12 51 38 88 56 49 23 73
41 84 63 8 17 40 55 71 84 63 58 111 65 172 23z m240 -7 c16 -29 72 -76 113
-95 32 -14 35 -29 7 -29 -12 0 -31 11 -44 25 -13 14 -31 25 -41 25 -17 0 -85
63 -85 79 0 30 34 26 50 -5z m414 -310 c19 -19 20 -38 3 -52 -27 -23 -75 36
-50 61 11 12 31 8 47 -9z m1231 -307 c17 -13 16 -14 -13 -20 -25 -5 -33 -13
-40 -39 -10 -41 -37 -49 -46 -14 -14 55 54 105 99 73z m-340 -327 c0 -8 -9
-16 -20 -19 -11 -2 -33 -14 -49 -28 -19 -15 -32 -21 -39 -14 -11 11 -1 31 17
31 8 0 21 12 30 26 19 27 61 31 61 4z m-9486 -275 c14 -8 40 -21 56 -29 44
-21 98 -83 131 -150 32 -65 41 -230 16 -286 -29 -63 -62 -106 -113 -147 -155
-122 -342 -119 -468 8 -69 68 -101 111 -101 136 -1 10 -7 29 -15 43 -76 134
85 403 265 441 51 11 199 1 229 -16z m-1822 -2619 c56 -28 140 -114 149 -152
3 -13 15 -41 25 -61 53 -103 9 -277 -96 -377 -123 -119 -331 -136 -447 -37
-126 109 -158 173 -158 312 1 58 5 90 15 103 8 11 15 27 15 36 0 10 11 30 25
46 14 16 29 34 34 39 31 36 87 79 133 101 75 35 225 31 305 -10z m12425 -1511
c6 -14 15 -25 19 -25 4 0 13 -16 19 -35 6 -19 16 -35 22 -35 26 0 159 -73 169
-93 7 -12 23 -32 36 -44 20 -19 22 -29 17 -62 -6 -38 -5 -40 22 -46 41 -9 134
-55 134 -66 0 -5 12 -15 26 -21 19 -9 24 -17 20 -34 -4 -16 1 -26 20 -39 20
-13 24 -22 20 -40 -7 -26 17 -47 43 -37 7 2 24 -7 37 -21 15 -16 30 -24 43
-20 13 3 21 -1 26 -16 3 -12 20 -28 36 -37 16 -8 35 -26 41 -39 6 -14 16 -25
21 -25 28 0 96 -56 97 -80 0 -14 3 -34 6 -46 4 -14 -5 -32 -30 -60 -59 -66
-57 -103 7 -104 15 0 30 -7 33 -15 4 -9 19 -15 35 -15 39 0 50 -27 19 -50 -16
-12 -20 -23 -16 -38 5 -15 1 -24 -14 -32 -30 -16 -25 -35 19 -70 42 -34 44
-68 8 -105 -9 -8 -13 -23 -10 -34 3 -13 -2 -24 -16 -33 -12 -7 -21 -23 -21
-38 0 -14 -9 -34 -21 -44 l-21 -18 23 -24 c23 -24 17 -43 -13 -44 -14 0 -8
-27 8 -41 49 -41 -51 -159 -136 -159 -31 0 -44 -30 -19 -45 7 -5 5 -15 -5 -31
-9 -13 -16 -30 -16 -39 0 -8 -9 -24 -20 -35 -14 -14 -18 -28 -14 -44 5 -20 -2
-29 -45 -56 -28 -19 -51 -37 -51 -42 0 -5 -15 -15 -34 -23 -28 -12 -34 -20
-39 -56 -5 -42 -39 -89 -64 -89 -7 0 -19 -11 -25 -25 -7 -16 -19 -25 -35 -25
-22 0 -25 -4 -27 -45 -1 -11 -13 -25 -28 -33 -16 -7 -28 -17 -28 -21 0 -15
-50 -30 -80 -25 -35 8 -80 -17 -80 -44 0 -40 -85 -122 -126 -122 -8 0 -31 -19
-52 -42 -70 -79 -116 -119 -134 -114 -22 5 -30 -7 -43 -64 -12 -51 -25 -57
-36 -16 -5 16 -14 33 -21 37 -16 10 -58 -51 -65 -97 -6 -35 -33 -59 -41 -36
-7 23 -31 12 -58 -26 -27 -37 -29 -38 -88 -37 -72 2 -96 -8 -96 -38 0 -32 -15
-51 -34 -44 -11 4 -24 -2 -38 -18 -26 -30 -35 -31 -43 -5 -10 31 -23 25 -87
-42 -37 -39 -62 -58 -65 -50 -9 22 -34 42 -53 42 -24 0 -33 -25 -14 -40 28
-24 17 -50 -22 -50 -22 0 -41 -6 -49 -16 -7 -10 -29 -18 -53 -20 -23 -1 -49
-10 -58 -18 -8 -9 -23 -17 -32 -18 -9 0 -29 -2 -44 -3 -14 -1 -34 -9 -42 -18
-19 -19 -94 -32 -142 -24 -28 5 -39 1 -58 -20 -19 -21 -30 -25 -54 -20 -18 4
-37 1 -48 -8 -24 -18 -58 -19 -73 -1 -12 15 -131 11 -141 -5 -10 -15 -128 -29
-247 -29 -86 0 -132 -4 -151 -14 -24 -12 -89 -21 -134 -17 -9 0 -24 8 -33 17
-13 13 -44 17 -173 19 -156 2 -157 2 -185 -24 -36 -33 -91 -31 -125 5 -29 31
-55 31 -76 -1 -22 -34 -130 -36 -191 -5 -66 34 -140 36 -167 5 -33 -38 -177
-38 -202 0 -9 14 -20 25 -25 25 -4 0 -13 -11 -19 -25 l-12 -25 -184 0 c-175 0
-186 1 -196 20 -13 24 -33 26 -50 5 -16 -20 -84 -19 -114 1 -23 14 -26 14 -45
-7 -23 -25 -107 -23 -153 3 -12 7 -52 13 -88 14 -79 1 -150 17 -161 36 -11 21
-100 11 -106 -12 -4 -16 -26 -17 -316 -16 -313 1 -337 -1 -337 -35 0 -14 -23
-11 -65 11 -59 30 -343 30 -370 0 l-18 -20 -24 22 c-36 34 -160 34 -195 1 -30
-28 -59 -29 -83 -3 -28 30 -292 30 -320 0 -17 -19 -31 -20 -385 -20 l-367 0
-11 24 c-10 22 -13 23 -111 18 -121 -6 -131 0 -131 68 0 35 4 50 17 54 18 7
34 -10 32 -34 -4 -50 13 -53 52 -9 16 18 25 37 22 49 -3 12 3 22 16 29 27 15
27 38 1 46 -27 9 -25 16 14 54 23 23 40 32 52 27 23 -9 46 12 38 37 -5 14 7
33 47 73 59 60 65 63 74 34 3 -11 10 -20 14 -20 19 0 64 51 67 76 2 19 26 50
78 101 49 47 76 82 76 95 0 29 58 88 86 88 28 0 244 213 244 240 0 29 33 61
70 69 30 6 35 11 35 36 1 29 8 35 71 51 6 1 14 25 18 53 4 27 14 57 22 66 12
11 14 26 9 55 -7 39 -6 39 42 62 l48 23 -3 48 c-3 39 1 52 23 78 31 37 29 50
-11 62 -31 10 -64 35 -64 49 0 17 38 7 52 -14 15 -22 16 -22 42 -4 33 21 29
23 47 -34 16 -51 35 -60 69 -30 12 11 30 21 39 22 9 0 29 2 45 3 19 1 38 13
56 35 30 36 75 48 188 49 56 1 66 4 90 30 28 30 101 71 126 71 8 0 19 -13 25
-30 12 -36 72 -43 117 -14 44 29 298 31 318 3 20 -29 213 -34 241 -6 9 10 33
18 53 18 78 3 90 5 106 22 22 22 94 22 124 1 39 -27 587 -26 628 1 27 19 59
24 144 25 20 0 53 9 75 20 22 11 49 20 62 20 32 0 39 19 14 37 -21 14 -21 16
-4 29 10 7 27 14 37 14 21 0 66 37 66 53 0 5 -8 16 -17 23 -24 17 -4 37 60 58
64 21 109 20 140 -4 14 -11 30 -20 36 -20 6 0 11 -7 11 -15 0 -8 -4 -15 -8
-15 -5 0 -17 -6 -28 -14 -19 -14 -19 -15 5 -40 31 -33 49 -33 53 1 2 17 10 29
21 31 24 5 22 -34 -3 -50 -11 -7 -20 -21 -20 -30 0 -9 -7 -21 -17 -26 -10 -6
-14 -16 -10 -26 8 -19 27 -13 27 8 0 15 64 31 80 21 16 -10 12 -23 -10 -30
-36 -11 -25 -45 15 -45 24 0 35 5 35 14 0 30 81 23 104 -9 7 -10 32 -19 59
-22 26 -3 52 -12 58 -19 6 -8 20 -14 30 -14 11 0 27 -9 36 -20 24 -28 57 -25
78 7 l18 27 19 -24 c25 -31 167 -36 201 -8 25 22 60 23 77 3 17 -20 37 -19 49
3 12 22 130 42 271 45 99 3 130 10 173 39 15 11 20 10 31 -4 26 -35 99 -27
139 16 34 36 37 37 58 22 20 -14 24 -13 49 12 164 161 164 161 199 115 l21
-28 38 43 c25 29 45 43 58 40 14 -2 24 8 40 40 11 23 47 69 79 102 62 63 78
67 118 32 17 -15 20 -15 35 4 9 11 29 28 44 37 15 10 30 30 34 45 22 99 23
101 57 104 27 2 33 8 35 31 3 20 12 32 32 41 40 16 130 103 130 125 0 10 9 28
20 41 11 13 20 30 20 39 0 9 3 25 6 37 4 15 -1 23 -20 32 -14 6 -26 18 -26 27
0 21 68 20 92 -1 16 -16 18 -15 24 1 4 9 1 20 -6 25 -8 5 -9 15 -4 31 5 13 7
43 5 66 -2 35 1 44 23 58 19 13 24 23 20 40 -4 16 1 29 17 44 23 22 69 29 69
11 0 -5 9 -10 20 -10 11 0 20 5 20 10 0 6 -9 10 -21 10 -16 0 -20 5 -17 27 4
38 35 43 48 9 13 -36 100 -29 100 8 0 21 -16 29 -37 18 -10 -5 -24 -7 -30 -5
-17 6 -17 29 0 36 7 3 19 23 25 46 7 23 22 46 35 52 12 7 26 18 30 26 5 8 16
11 26 8 28 -8 71 31 71 65 0 26 4 29 37 32 30 2 41 9 51 31 17 36 58 37 74 2z
m-10195 -1331 c106 -24 242 -147 243 -220 1 -10 7 -30 15 -44 19 -33 19 -111
0 -169 -8 -25 -17 -58 -20 -72 -6 -34 -100 -131 -150 -157 -97 -49 -190 -64
-258 -43 -242 75 -348 301 -244 521 22 46 103 140 121 140 5 0 17 6 25 14 44
39 168 53 268 30z"/>
<path d="M15307 12704 c-17 -18 -6 -35 21 -32 16 2 27 9 27 18 0 16 -36 26
-48 14z"/>
<path d="M21671 13011 c-13 -23 -5 -31 30 -31 31 0 42 11 33 34 -8 22 -51 20
-63 -3z"/>
</g>
</svg>
