<svg width="128" height="128" viewBox="0 0 128 128" fill="none" xmlns="http://www.w3.org/2000/svg">
  <defs>
    <linearGradient id="logo-gradient" x1="0" y1="0" x2="1" y2="1">
      <stop offset="0%" stop-color="#3b82f6"/>
      <stop offset="50%" stop-color="#06b6d4"/>
      <stop offset="100%" stop-color="#8b5cf6"/>
    </linearGradient>
    <filter id="logo-shadow" x="-30%" y="-30%" width="160%" height="160%">
      <feDropShadow dx="0" dy="12" stdDeviation="12" flood-color="#0c1222" flood-opacity="0.18"/>
    </filter>
  </defs>
  <g filter="url(#logo-shadow)">
    <path d="M92.4 24.6c-3.5-3.8-8.3-6-14.3-6H36.8c-1.9 0-3.7 0.7-5.2 2.2-1.4 1.4-2.2 3.3-2.2 5.2v48.4c0 1.9 0.7 3.8 2.2 5.2 1.4 1.4 3.3 2.2 5.2 2.2h29.3c6 0 10.8-2.2 14.3-6 3.5-3.8 5.3-8.9 5.3-15.4V48.3c0-2.3-0.4-4.7-1.4-7.2-0.9-2.2-2.5-4.4-4.6-6.2 2.2-2 3.7-4.5 4.6-6.9 1-2.4 1.4-4.8 1.4-7.2V25c0-6.5-1.8-11.5-5.3-15.4ZM79.8 59.7c-2.1 2.6-5.1 4.1-9 4.1H41.7V28.2h29.1c3.9 0 6.9 1.5 9 4.1 2.1 2.6 3.1 6.1 3.1 10.6v8.2c0 4.4-1.1 7.9-3.1 10.6Zm0-33.2c-2.1 2.6-5.1 4.1-9 4.1H41.7V52h29.1c3.9 0 6.9 1.5 9 4.1 2.1 2.6 3.1 6.1 3.1 10.6v0.1c0 4.4-1.1 7.9-3.1 10.6Z" fill="url(#logo-gradient)"/>
    <path d="M32.5 34.8h-5V29.8" stroke="#8bc5ff" stroke-width="4" stroke-linecap="round"/>
    <path d="M32.5 53.4h-7.3" stroke="#8bc5ff" stroke-width="4" stroke-linecap="round"/>
    <path d="M32.5 72.1h-5v4.9" stroke="#8bc5ff" stroke-width="4" stroke-linecap="round"/>
    <circle cx="26" cy="27" r="4" fill="#8bc5ff"/>
    <circle cx="26" cy="53.4" r="4" fill="#8bc5ff"/>
    <circle cx="26" cy="78" r="4" fill="#8bc5ff"/>
  </g>
</svg>
